# Blender v2.78 (sub 0) OBJ File: ''
# www.blender.org
v -0.850000 -1.000000 -0.850000
v -1.000000 -0.850000 -0.850000
v -0.850000 -0.850000 -1.000000
v -0.907403 -0.988582 -0.850000
v -0.956066 -0.956066 -0.850000
v -0.850000 -0.988582 -0.907402
v -0.908841 -0.974802 -0.908841
v -0.948438 -0.948438 -0.905856
v -0.936603 -0.936603 -0.936602
v -0.988582 -0.850000 -0.907402
v -0.956066 -0.850000 -0.956066
v -0.988582 -0.907403 -0.850000
v -0.974802 -0.908841 -0.908841
v -0.948438 -0.905856 -0.948438
v -0.850000 -0.907403 -0.988582
v -0.850000 -0.956066 -0.956066
v -0.907403 -0.850000 -0.988582
v -0.908841 -0.908841 -0.974802
v -0.905856 -0.948438 -0.948438
v -0.850000 -1.000000 0.850000
v -0.850000 -0.850000 1.000000
v -1.000000 -0.850000 0.850000
v -0.850000 -0.988582 0.907403
v -0.850000 -0.956066 0.956066
v -0.907403 -0.988582 0.850000
v -0.908841 -0.974802 0.908841
v -0.905856 -0.948438 0.948438
v -0.936603 -0.936602 0.936603
v -0.907403 -0.850000 0.988582
v -0.956066 -0.850000 0.956066
v -0.850000 -0.907402 0.988582
v -0.908841 -0.908841 0.974802
v -0.948438 -0.905856 0.948438
v -0.988582 -0.907402 0.850000
v -0.956066 -0.956066 0.850000
v -0.988582 -0.850000 0.907403
v -0.974802 -0.908841 0.908841
v -0.948438 -0.948438 0.905856
v -0.850000 0.850000 1.000000
v -0.850000 1.000000 0.850000
v -1.000000 0.850000 0.850000
v -0.850000 0.907403 0.988582
v -0.850000 0.956066 0.956066
v -0.907403 0.850000 0.988582
v -0.908841 0.908841 0.974801
v -0.905856 0.948438 0.948438
v -0.936603 0.936603 0.936602
v -0.907403 0.988582 0.850000
v -0.956066 0.956066 0.850000
v -0.850000 0.988582 0.907402
v -0.908841 0.974802 0.908841
v -0.948438 0.948438 0.905855
v -0.988582 0.850000 0.907402
v -0.956066 0.850000 0.956066
v -0.988582 0.907403 0.850000
v -0.974802 0.908841 0.908841
v -0.948438 0.905856 0.948438
v -0.850000 0.850000 -1.000000
v -1.000000 0.850000 -0.850000
v -0.850000 1.000000 -0.850000
v -0.907403 0.850000 -0.988582
v -0.956066 0.850000 -0.956066
v -0.850000 0.907402 -0.988582
v -0.908841 0.908841 -0.974802
v -0.948438 0.905855 -0.948438
v -0.936603 0.936602 -0.936603
v -0.988582 0.907402 -0.850000
v -0.956066 0.956066 -0.850000
v -0.988582 0.850000 -0.907403
v -0.974802 0.908841 -0.908841
v -0.948438 0.948438 -0.905856
v -0.850000 0.988582 -0.907403
v -0.850000 0.956066 -0.956066
v -0.907403 0.988582 -0.850000
v -0.908841 0.974801 -0.908841
v -0.905856 0.948438 -0.948439
v 0.850000 -0.850000 -1.000000
v 1.000000 -0.850000 -0.849999
v 0.850000 -1.000000 -0.849999
v 0.907403 -0.850000 -0.988581
v 0.956066 -0.850000 -0.956065
v 0.850000 -0.907403 -0.988581
v 0.908841 -0.908841 -0.974801
v 0.948438 -0.905856 -0.948438
v 0.936603 -0.936603 -0.936602
v 0.988582 -0.907403 -0.849999
v 0.956066 -0.956066 -0.849999
v 0.988582 -0.850000 -0.907402
v 0.974802 -0.908841 -0.908840
v 0.948438 -0.948439 -0.905855
v 0.850000 -0.988582 -0.907402
v 0.850000 -0.956066 -0.956065
v 0.907403 -0.988582 -0.849999
v 0.908841 -0.974802 -0.908840
v 0.905856 -0.948439 -0.948438
v 0.850000 -0.849999 1.000000
v 0.850000 -0.999999 0.850001
v 1.000000 -0.849999 0.850001
v 0.850000 -0.907402 0.988582
v 0.850000 -0.956065 0.956067
v 0.907403 -0.849999 0.988582
v 0.908841 -0.908840 0.974802
v 0.905856 -0.948438 0.948439
v 0.936603 -0.936602 0.936603
v 0.907403 -0.988581 0.850001
v 0.956066 -0.956065 0.850001
v 0.850000 -0.988581 0.907403
v 0.908841 -0.974801 0.908842
v 0.948438 -0.948438 0.905856
v 0.988582 -0.849999 0.907403
v 0.956066 -0.849999 0.956067
v 0.988582 -0.907402 0.850001
v 0.974802 -0.908840 0.908842
v 0.948438 -0.905855 0.948439
v 0.850000 1.000000 0.850000
v 0.850000 0.850000 1.000000
v 1.000000 0.850000 0.850000
v 0.850000 0.988582 0.907402
v 0.850000 0.956066 0.956066
v 0.907403 0.988582 0.850000
v 0.908841 0.974802 0.908841
v 0.905856 0.948439 0.948438
v 0.936603 0.936603 0.936602
v 0.907403 0.850000 0.988582
v 0.956066 0.850000 0.956066
v 0.850000 0.907403 0.988582
v 0.908841 0.908841 0.974801
v 0.948438 0.905856 0.948438
v 0.988582 0.907403 0.850000
v 0.956066 0.956066 0.850000
v 0.988582 0.850000 0.907402
v 0.974802 0.908841 0.908841
v 0.948438 0.948439 0.905855
v 0.850000 1.000000 -0.850000
v 1.000000 0.850000 -0.850000
v 0.850000 0.850000 -1.000000
v 0.907403 0.988582 -0.850000
v 0.956066 0.956066 -0.850000
v 0.850000 0.988582 -0.907403
v 0.908841 0.974802 -0.908841
v 0.948438 0.948438 -0.905856
v 0.936603 0.936602 -0.936603
v 0.988582 0.850000 -0.907403
v 0.956066 0.850000 -0.956066
v 0.988582 0.907402 -0.850000
v 0.974802 0.908841 -0.908841
v 0.948438 0.905855 -0.948438
v 0.850000 0.907402 -0.988582
v 0.850000 0.956066 -0.956066
v 0.907403 0.850000 -0.988582
v 0.908841 0.908841 -0.974802
v 0.905856 0.948438 -0.948438
vt 0.9250 0.0750
vt 0.9250 0.9250
vt 0.0750 0.9250
vt 0.0750 0.0750
vt 0.9250 0.0750
vt 0.9250 0.9250
vt 0.0750 0.9250
vt 0.0750 0.0750
vt 0.0750 0.0750
vt 0.9250 0.0750
vt 0.9250 0.9250
vt 0.0750 0.9250
vt 0.9250 0.9250
vt 0.0750 0.9250
vt 0.0750 0.0750
vt 0.9250 0.0750
vt 0.9250 0.9250
vt 0.0750 0.9250
vt 0.0750 0.0750
vt 0.9250 0.0750
vt 0.9537 0.9250
vt 0.9544 0.9544
vt 0.9250 0.9537
vt 1.0000 0.9250
vt 1.0000 0.9529
vt 0.9529 1.0000
vt 0.9250 1.0000
vt 1.0000 0.9683
vt 0.0750 0.9250
vt 0.0750 0.9537
vt 0.0456 0.9544
vt 0.0463 0.9250
vt 0.0750 1.0000
vt 0.0471 1.0000
vt -0.0000 0.9529
vt -0.0000 0.9250
vt 0.0317 1.0000
vt 0.9537 0.9250
vt 0.9544 0.9544
vt 0.9250 0.9537
vt 1.0000 0.9250
vt 1.0000 0.9529
vt 0.9529 1.0000
vt 0.9250 1.0000
vt 0.9250 0.0463
vt 0.9544 0.0456
vt 0.9537 0.0750
vt 0.9250 -0.0000
vt 0.9529 -0.0000
vt 1.0000 0.0471
vt 1.0000 0.0750
vt 0.9683 -0.0000
vt 0.9250 0.0463
vt 0.9544 0.0456
vt 0.9537 0.0750
vt 0.9250 -0.0000
vt 0.9529 -0.0000
vt 1.0000 0.0471
vt 1.0000 0.0750
vt 0.0750 0.0750
vt 0.0463 0.0750
vt 0.0456 0.0456
vt 0.0750 0.0463
vt -0.0000 0.0750
vt -0.0000 0.0471
vt 0.0471 -0.0000
vt 0.0750 -0.0000
vt -0.0000 0.0317
vt 0.0463 0.0750
vt 0.0456 0.0456
vt 0.0750 0.0463
vt -0.0000 0.0750
vt -0.0000 0.0471
vt 0.0471 -0.0000
vt 0.0750 -0.0000
vt -0.0000 0.0317
vt 0.0463 0.0750
vt 0.0456 0.0456
vt 0.0750 0.0463
vt -0.0000 0.0750
vt -0.0000 0.0471
vt 0.0471 -0.0000
vt 0.0750 -0.0000
vt 0.9250 0.0750
vt 0.9250 0.0463
vt 0.9544 0.0456
vt 0.9537 0.0750
vt 0.9250 -0.0000
vt 0.9529 -0.0000
vt 1.0000 0.0471
vt 1.0000 0.0750
vt 0.9683 -0.0000
vt 0.0750 0.9537
vt 0.0456 0.9544
vt 0.0463 0.9250
vt 0.0750 1.0000
vt 0.0471 1.0000
vt -0.0000 0.9529
vt -0.0000 0.9250
vt 0.0317 1.0000
vt 0.9250 0.9250
vt 0.9537 0.9250
vt 0.9544 0.9544
vt 0.9250 0.9537
vt 1.0000 0.9250
vt 1.0000 0.9529
vt 0.9529 1.0000
vt 0.9250 1.0000
vt 1.0000 0.9683
vt 0.0750 0.9537
vt 0.0456 0.9544
vt 0.0463 0.9250
vt 0.0750 1.0000
vt 0.0471 1.0000
vt -0.0000 0.9529
vt -0.0000 0.9250
vt 0.9250 0.0463
vt 0.9544 0.0456
vt 0.9537 0.0750
vt 0.9250 -0.0000
vt 0.9529 -0.0000
vt 1.0000 0.0471
vt 1.0000 0.0750
vt 0.9683 -0.0000
vt 0.9537 0.9250
vt 0.9544 0.9544
vt 0.9250 0.9537
vt 1.0000 0.9250
vt 1.0000 0.9529
vt 0.9529 1.0000
vt 0.9250 1.0000
vt 1.0000 0.9683
vt 0.0750 0.9537
vt 0.0456 0.9544
vt 0.0463 0.9250
vt 0.0750 1.0000
vt 0.0471 1.0000
vt -0.0000 0.9529
vt -0.0000 0.9250
vt 0.0317 1.0000
vt 0.9537 0.9250
vt 0.9544 0.9544
vt 0.9250 0.9537
vt 1.0000 0.9250
vt 1.0000 0.9529
vt 0.9529 1.0000
vt 0.9250 1.0000
vt 1.0000 0.9683
vt 0.0463 0.0750
vt 0.0456 0.0456
vt 0.0750 0.0463
vt -0.0000 0.0750
vt -0.0000 0.0471
vt 0.0471 -0.0000
vt 0.0750 -0.0000
vt -0.0000 0.0317
vt 0.9250 0.0463
vt 0.9544 0.0456
vt 0.9537 0.0750
vt 0.9250 -0.0000
vt 0.9529 -0.0000
vt 1.0000 0.0471
vt 1.0000 0.0750
vt 0.9683 -0.0000
vt 0.9250 0.0463
vt 0.9544 0.0456
vt 0.9537 0.0750
vt 0.9250 -0.0000
vt 0.9529 -0.0000
vt 1.0000 0.0471
vt 1.0000 0.0750
vt 0.9683 -0.0000
vt 0.0750 0.9537
vt 0.0456 0.9544
vt 0.0463 0.9250
vt 0.0750 1.0000
vt 0.0471 1.0000
vt -0.0000 0.9529
vt -0.0000 0.9250
vt 0.0317 1.0000
vt 0.0463 0.0750
vt 0.0456 0.0456
vt 0.0750 0.0463
vt -0.0000 0.0750
vt -0.0000 0.0471
vt 0.0471 -0.0000
vt 0.0750 -0.0000
vt -0.0000 0.0317
vt 0.9537 0.9250
vt 0.9544 0.9544
vt 0.9250 0.9537
vt 1.0000 0.9250
vt 1.0000 0.9529
vt 0.9529 1.0000
vt 0.9250 1.0000
vt 1.0000 0.9683
vt 0.0750 0.9537
vt 0.0456 0.9544
vt 0.0463 0.9250
vt 0.0750 1.0000
vt 0.0471 1.0000
vt -0.0000 0.9529
vt -0.0000 0.9250
vt 0.0317 1.0000
vt 0.0463 0.0750
vt 0.0456 0.0456
vt 0.0750 0.0463
vt -0.0000 0.0750
vt -0.0000 0.0471
vt 0.0471 -0.0000
vt 0.0750 -0.0000
vt -0.0000 0.0317
vn 0.1004 -0.1004 -0.9899
vn -0.1004 -0.1004 -0.9899
vn -0.1004 0.1004 -0.9899
vn 0.1004 0.1004 -0.9899
vn -0.1004 -0.1004 0.9899
vn 0.1004 -0.1004 0.9899
vn 0.1004 0.1004 0.9899
vn -0.1004 0.1004 0.9899
vn -0.1004 0.9899 0.1004
vn 0.1004 0.9899 0.1004
vn 0.1004 0.9899 -0.1004
vn -0.1004 0.9899 -0.1004
vn 0.9899 -0.1004 -0.1004
vn 0.9899 0.1004 -0.1004
vn 0.9899 0.1004 0.1004
vn 0.9899 -0.1004 0.1004
vn -0.1004 -0.9899 -0.1004
vn 0.1004 -0.9899 -0.1004
vn 0.1004 -0.9899 0.1004
vn -0.1004 -0.9899 0.1004
vn -0.3792 -0.9201 -0.0981
vn -0.3673 -0.8545 -0.3673
vn -0.0981 -0.9201 -0.3792
vn -0.7041 -0.7041 -0.0919
vn -0.6663 -0.6663 -0.3347
vn -0.3347 -0.6663 -0.6663
vn -0.0919 -0.7041 -0.7041
vn -0.5773 -0.5773 -0.5773
vn -0.9899 -0.1004 -0.1004
vn -0.9201 -0.0981 -0.3792
vn -0.8545 -0.3673 -0.3673
vn -0.9201 -0.3792 -0.0981
vn -0.7041 -0.0919 -0.7041
vn -0.6663 -0.3347 -0.6663
vn -0.0981 -0.3792 -0.9201
vn -0.3673 -0.3673 -0.8545
vn -0.3792 -0.0981 -0.9201
vn -0.0981 -0.9201 0.3792
vn -0.3673 -0.8545 0.3673
vn -0.3792 -0.9201 0.0981
vn -0.0919 -0.7041 0.7041
vn -0.3347 -0.6663 0.6663
vn -0.6663 -0.6663 0.3347
vn -0.7041 -0.7041 0.0919
vn -0.5773 -0.5773 0.5773
vn -0.3792 -0.0981 0.9201
vn -0.3673 -0.3673 0.8545
vn -0.0981 -0.3792 0.9201
vn -0.7041 -0.0919 0.7041
vn -0.6663 -0.3347 0.6663
vn -0.9899 -0.1004 0.1004
vn -0.9201 -0.3792 0.0981
vn -0.8545 -0.3673 0.3673
vn -0.9201 -0.0981 0.3792
vn -0.0981 0.3792 0.9201
vn -0.3673 0.3673 0.8545
vn -0.3792 0.0981 0.9201
vn -0.0919 0.7041 0.7041
vn -0.3347 0.6663 0.6663
vn -0.6663 0.3347 0.6663
vn -0.7041 0.0919 0.7041
vn -0.5773 0.5773 0.5773
vn -0.3792 0.9201 0.0981
vn -0.3673 0.8545 0.3673
vn -0.0981 0.9201 0.3792
vn -0.7041 0.7041 0.0919
vn -0.6663 0.6663 0.3347
vn -0.9899 0.1004 0.1004
vn -0.9201 0.0981 0.3792
vn -0.8545 0.3673 0.3673
vn -0.9201 0.3792 0.0981
vn -0.3792 0.0981 -0.9201
vn -0.3673 0.3673 -0.8545
vn -0.0981 0.3792 -0.9201
vn -0.7041 0.0919 -0.7041
vn -0.6663 0.3347 -0.6663
vn -0.3347 0.6663 -0.6663
vn -0.0919 0.7041 -0.7041
vn -0.5773 0.5773 -0.5773
vn -0.9899 0.1004 -0.1004
vn -0.9201 0.3792 -0.0981
vn -0.8545 0.3673 -0.3673
vn -0.9201 0.0981 -0.3792
vn -0.7041 0.7041 -0.0919
vn -0.6663 0.6663 -0.3347
vn -0.0981 0.9201 -0.3792
vn -0.3673 0.8545 -0.3673
vn -0.3792 0.9201 -0.0981
vn 0.3792 -0.0981 -0.9201
vn 0.3673 -0.3673 -0.8545
vn 0.0981 -0.3792 -0.9201
vn 0.7041 -0.0919 -0.7041
vn 0.6663 -0.3347 -0.6663
vn 0.3347 -0.6663 -0.6663
vn 0.0919 -0.7041 -0.7041
vn 0.5773 -0.5773 -0.5773
vn 0.9201 -0.3792 -0.0981
vn 0.8545 -0.3673 -0.3673
vn 0.9201 -0.0981 -0.3792
vn 0.7041 -0.7041 -0.0919
vn 0.6663 -0.6663 -0.3347
vn 0.0981 -0.9201 -0.3792
vn 0.3673 -0.8545 -0.3673
vn 0.3792 -0.9201 -0.0981
vn 0.0981 -0.3792 0.9201
vn 0.3673 -0.3673 0.8545
vn 0.3792 -0.0981 0.9201
vn 0.0919 -0.7041 0.7041
vn 0.3347 -0.6663 0.6663
vn 0.6663 -0.3347 0.6663
vn 0.7041 -0.0919 0.7041
vn 0.5773 -0.5773 0.5773
vn 0.3792 -0.9201 0.0981
vn 0.3673 -0.8545 0.3673
vn 0.0981 -0.9201 0.3792
vn 0.7041 -0.7041 0.0919
vn 0.6663 -0.6663 0.3347
vn 0.9201 -0.0981 0.3792
vn 0.8545 -0.3673 0.3673
vn 0.9201 -0.3792 0.0981
vn 0.0981 0.9201 0.3792
vn 0.3673 0.8545 0.3673
vn 0.3792 0.9201 0.0981
vn 0.0919 0.7041 0.7041
vn 0.3347 0.6663 0.6663
vn 0.6663 0.6663 0.3347
vn 0.7041 0.7041 0.0919
vn 0.5773 0.5773 0.5773
vn 0.3792 0.0981 0.9201
vn 0.3673 0.3673 0.8545
vn 0.0981 0.3792 0.9201
vn 0.7041 0.0919 0.7041
vn 0.6663 0.3347 0.6663
vn 0.9201 0.3792 0.0981
vn 0.8545 0.3673 0.3673
vn 0.9201 0.0981 0.3792
vn 0.3792 0.9201 -0.0981
vn 0.3673 0.8545 -0.3673
vn 0.0981 0.9201 -0.3792
vn 0.7041 0.7041 -0.0919
vn 0.6663 0.6663 -0.3347
vn 0.3347 0.6663 -0.6663
vn 0.0919 0.7041 -0.7041
vn 0.5773 0.5773 -0.5773
vn 0.9201 0.0981 -0.3792
vn 0.8545 0.3673 -0.3673
vn 0.9201 0.3792 -0.0981
vn 0.7041 0.0919 -0.7041
vn 0.6663 0.3347 -0.6663
vn 0.0981 0.3792 -0.9201
vn 0.3673 0.3673 -0.8545
vn 0.3792 0.0981 -0.9201
s 1
f 77/1/1 3/2/2 58/3/3 136/4/4
f 21/5/5 96/6/6 116/7/7 39/8/8
f 40/9/9 115/10/10 134/11/11 60/12/12
f 78/13/13 135/14/14 117/15/15 98/16/16
f 1/17/17 79/18/18 97/19/19 20/20/20
f 1/17/17 4/21/21 7/22/22 6/23/23
f 4/21/21 5/24/24 8/25/25 7/22/22
f 6/23/23 7/22/22 19/26/26 16/27/27
f 7/22/22 8/25/25 9/28/28 19/26/26
f 2/29/29 10/30/30 13/31/31 12/32/32
f 10/30/30 11/33/33 14/34/34 13/31/31
f 12/32/32 13/31/31 8/35/25 5/36/24
f 13/31/31 14/34/34 9/37/28 8/35/25
f 3/2/2 15/38/35 18/39/36 17/40/37
f 15/38/35 16/41/27 19/42/26 18/39/36
f 17/40/37 18/39/36 14/43/34 11/44/33
f 18/39/36 19/42/26 9/28/28 14/43/34
f 20/20/20 23/45/38 26/46/39 25/47/40
f 23/45/38 24/48/41 27/49/42 26/46/39
f 25/47/40 26/46/39 38/50/43 35/51/44
f 26/46/39 27/49/42 28/52/45 38/50/43
f 21/5/5 29/53/46 32/54/47 31/55/48
f 29/53/46 30/56/49 33/57/50 32/54/47
f 31/55/48 32/54/47 27/58/42 24/59/41
f 32/54/47 33/57/50 28/52/45 27/58/42
f 22/60/51 34/61/52 37/62/53 36/63/54
f 34/61/52 35/64/44 38/65/43 37/62/53
f 36/63/54 37/62/53 33/66/50 30/67/49
f 37/62/53 38/65/43 28/68/45 33/66/50
f 39/8/8 42/69/55 45/70/56 44/71/57
f 42/69/55 43/72/58 46/73/59 45/70/56
f 44/71/57 45/70/56 57/74/60 54/75/61
f 45/70/56 46/73/59 47/76/62 57/74/60
f 40/9/9 48/77/63 51/78/64 50/79/65
f 48/77/63 49/80/66 52/81/67 51/78/64
f 50/79/65 51/78/64 46/82/59 43/83/58
f 51/78/64 52/81/67 47/76/62 46/82/59
f 41/84/68 53/85/69 56/86/70 55/87/71
f 53/85/69 54/88/61 57/89/60 56/86/70
f 55/87/71 56/86/70 52/90/67 49/91/66
f 56/86/70 57/89/60 47/92/62 52/90/67
f 58/3/3 61/93/72 64/94/73 63/95/74
f 61/93/72 62/96/75 65/97/76 64/94/73
f 63/95/74 64/94/73 76/98/77 73/99/78
f 64/94/73 65/97/76 66/100/79 76/98/77
f 59/101/80 67/102/81 70/103/82 69/104/83
f 67/102/81 68/105/84 71/106/85 70/103/82
f 69/104/83 70/103/82 65/107/76 62/108/75
f 70/103/82 71/106/85 66/109/79 65/107/76
f 60/12/12 72/110/86 75/111/87 74/112/88
f 72/110/86 73/113/78 76/114/77 75/111/87
f 74/112/88 75/111/87 71/115/85 68/116/84
f 75/111/87 76/114/77 66/100/79 71/115/85
f 77/1/1 80/117/89 83/118/90 82/119/91
f 80/117/89 81/120/92 84/121/93 83/118/90
f 82/119/91 83/118/90 95/122/94 92/123/95
f 83/118/90 84/121/93 85/124/96 95/122/94
f 78/13/13 86/125/97 89/126/98 88/127/99
f 86/125/97 87/128/100 90/129/101 89/126/98
f 88/127/99 89/126/98 84/130/93 81/131/92
f 89/126/98 90/129/101 85/132/96 84/130/93
f 79/18/18 91/133/102 94/134/103 93/135/104
f 91/133/102 92/136/95 95/137/94 94/134/103
f 93/135/104 94/134/103 90/138/101 87/139/100
f 94/134/103 95/137/94 85/140/96 90/138/101
f 96/6/6 99/141/105 102/142/106 101/143/107
f 99/141/105 100/144/108 103/145/109 102/142/106
f 101/143/107 102/142/106 114/146/110 111/147/111
f 102/142/106 103/145/109 104/148/112 114/146/110
f 97/19/19 105/149/113 108/150/114 107/151/115
f 105/149/113 106/152/116 109/153/117 108/150/114
f 107/151/115 108/150/114 103/154/109 100/155/108
f 108/150/114 109/153/117 104/156/112 103/154/109
f 98/16/16 110/157/118 113/158/119 112/159/120
f 110/157/118 111/160/111 114/161/110 113/158/119
f 112/159/120 113/158/119 109/162/117 106/163/116
f 113/158/119 114/161/110 104/164/112 109/162/117
f 115/10/10 118/165/121 121/166/122 120/167/123
f 118/165/121 119/168/124 122/169/125 121/166/122
f 120/167/123 121/166/122 133/170/126 130/171/127
f 121/166/122 122/169/125 123/172/128 133/170/126
f 116/7/7 124/173/129 127/174/130 126/175/131
f 124/173/129 125/176/132 128/177/133 127/174/130
f 126/175/131 127/174/130 122/178/125 119/179/124
f 127/174/130 128/177/133 123/180/128 122/178/125
f 117/15/15 129/181/134 132/182/135 131/183/136
f 129/181/134 130/184/127 133/185/126 132/182/135
f 131/183/136 132/182/135 128/186/133 125/187/132
f 132/182/135 133/185/126 123/188/128 128/186/133
f 134/11/11 137/189/137 140/190/138 139/191/139
f 137/189/137 138/192/140 141/193/141 140/190/138
f 139/191/139 140/190/138 152/194/142 149/195/143
f 140/190/138 141/193/141 142/196/144 152/194/142
f 135/14/14 143/197/145 146/198/146 145/199/147
f 143/197/145 144/200/148 147/201/149 146/198/146
f 145/199/147 146/198/146 141/202/141 138/203/140
f 146/198/146 147/201/149 142/204/144 141/202/141
f 136/4/4 148/205/150 151/206/151 150/207/152
f 148/205/150 149/208/143 152/209/142 151/206/151
f 150/207/152 151/206/151 147/210/149 144/211/148
f 151/206/151 152/209/142 142/212/144 147/210/149
f 1/17/17 20/20/20 25/47/40 4/21/21
f 4/21/21 25/47/40 35/51/44 5/24/24
f 5/36/24 35/64/44 34/61/52 12/32/32
f 12/32/32 34/61/52 22/60/51 2/29/29
f 2/29/29 59/101/80 69/104/83 10/30/30
f 10/30/30 69/104/83 62/108/75 11/33/33
f 11/44/33 62/96/75 61/93/72 17/40/37
f 17/40/37 61/93/72 58/3/3 3/2/2
f 3/2/2 77/1/1 82/119/91 15/38/35
f 15/38/35 82/119/91 92/123/95 16/41/27
f 16/27/27 92/136/95 91/133/102 6/23/23
f 6/23/23 91/133/102 79/18/18 1/17/17
f 21/5/5 39/8/8 44/71/57 29/53/46
f 29/53/46 44/71/57 54/75/61 30/56/49
f 30/67/49 54/88/61 53/85/69 36/63/54
f 36/63/54 53/85/69 41/84/68 22/60/51
f 20/20/20 97/19/19 107/151/115 23/45/38
f 23/45/38 107/151/115 100/155/108 24/48/41
f 24/59/41 100/144/108 99/141/105 31/55/48
f 31/55/48 99/141/105 96/6/6 21/5/5
f 40/9/9 60/12/12 74/112/88 48/77/63
f 48/77/63 74/112/88 68/116/84 49/80/66
f 49/91/66 68/105/84 67/102/81 55/87/71
f 55/87/71 67/102/81 59/101/80 41/84/68
f 39/8/8 116/7/7 126/175/131 42/69/55
f 42/69/55 126/175/131 119/179/124 43/72/58
f 43/83/58 119/168/124 118/165/121 50/79/65
f 50/79/65 118/165/121 115/10/10 40/9/9
f 60/12/12 134/11/11 139/191/139 72/110/86
f 72/110/86 139/191/139 149/195/143 73/113/78
f 73/99/78 149/208/143 148/205/150 63/95/74
f 63/95/74 148/205/150 136/4/4 58/3/3
f 78/13/13 98/16/16 112/159/120 86/125/97
f 86/125/97 112/159/120 106/163/116 87/128/100
f 87/139/100 106/152/116 105/149/113 93/135/104
f 93/135/104 105/149/113 97/19/19 79/18/18
f 77/1/1 136/4/4 150/207/152 80/117/89
f 80/117/89 150/207/152 144/211/148 81/120/92
f 81/131/92 144/200/148 143/197/145 88/127/99
f 88/127/99 143/197/145 135/14/14 78/13/13
f 98/16/16 117/15/15 131/183/136 110/157/118
f 110/157/118 131/183/136 125/187/132 111/160/111
f 111/147/111 125/176/132 124/173/129 101/143/107
f 101/143/107 124/173/129 116/7/7 96/6/6
f 117/15/15 135/14/14 145/199/147 129/181/134
f 129/181/134 145/199/147 138/203/140 130/184/127
f 130/171/127 138/192/140 137/189/137 120/167/123
f 120/167/123 137/189/137 134/11/11 115/10/10
f 2/29/29 22/60/51 41/84/68 59/101/80
